<svg width="29" height="29" viewBox="0 0 29 29" fill="none" xmlns="http://www.w3.org/2000/svg">
<g clip-path="url(#clip0_53_40)">
<path d="M25.2 27.6C25.2 28.2636 24.6624 28.8 24 28.8C23.3376 28.8 22.8 28.2636 22.8 27.6C22.8 24.9528 20.6472 22.8 18 22.8H10.8C8.15279 22.8 5.99999 24.9528 5.99999 27.6C5.99999 28.2636 5.46239 28.8 4.79999 28.8C4.13759 28.8 3.59999 28.2636 3.59999 27.6C3.59999 23.6292 6.82919 20.4 10.8 20.4H18C21.9708 20.4 25.2 23.6292 25.2 27.6ZM26.4 9V11.4C26.4 12.3924 25.5924 13.2 24.6 13.2H24C24 15.8472 21.8472 18 19.2 18H9.59999C6.95279 18 4.79999 15.8472 4.79999 13.2H4.19999C3.20759 13.2 2.39999 12.3924 2.39999 11.4V9C2.39999 8.0076 3.20759 7.2 4.19999 7.2H4.79999C4.79999 4.5528 6.95279 2.4 9.59999 2.4H13.2V1.2C13.2 0.5364 13.7376 0 14.4 0C15.0624 0 15.6 0.5364 15.6 1.2V2.4H19.2C21.8472 2.4 24 4.5528 24 7.2H24.6C25.5924 7.2 26.4 8.0076 26.4 9ZM21.6 7.2C21.6 5.8764 20.5236 4.8 19.2 4.8H9.59999C8.27639 4.8 7.19999 5.8764 7.19999 7.2V13.2C7.19999 14.5236 8.27639 15.6 9.59999 15.6H19.2C20.5236 15.6 21.6 14.5236 21.6 13.2V7.2ZM11.4 8.4C10.4064 8.4 9.59999 9.2064 9.59999 10.2C9.59999 11.1936 10.4064 12 11.4 12C12.3936 12 13.2 11.1936 13.2 10.2C13.2 9.2064 12.3936 8.4 11.4 8.4ZM17.4 8.4C16.4064 8.4 15.6 9.2064 15.6 10.2C15.6 11.1936 16.4064 12 17.4 12C18.3936 12 19.2 11.1936 19.2 10.2C19.2 9.2064 18.3936 8.4 17.4 8.4Z" fill="black"/>
</g>
<defs>
<clipPath id="clip0_53_40">
<rect width="28.8" height="28.8" fill="white"/>
</clipPath>
</defs>
</svg>
