<svg width="29" height="29" viewBox="0 0 29 29" fill="none" xmlns="http://www.w3.org/2000/svg">
<g clip-path="url(#clip0_94_51)">
<path d="M24.1667 29H4.83332C4.16632 29 3.62499 28.4599 3.62499 27.7917C3.62499 23.7933 6.87661 20.5417 10.875 20.5417H18.125C22.1234 20.5417 25.375 23.7933 25.375 27.7917C25.375 28.4599 24.8337 29 24.1667 29ZM24.7708 7.25H24.1667C24.1667 4.58442 21.9989 2.41667 19.3333 2.41667H15.7083V1.20833C15.7083 0.540125 15.167 0 14.5 0C13.833 0 13.2917 0.540125 13.2917 1.20833V2.41667H9.66666C7.00107 2.41667 4.83332 4.58442 4.83332 7.25H4.22916C3.22986 7.25 2.41666 8.06321 2.41666 9.0625V11.4792C2.41666 12.4785 3.22986 13.2917 4.22916 13.2917H4.83332C4.83332 15.9573 7.00107 18.125 9.66666 18.125H19.3333C21.9989 18.125 24.1667 15.9573 24.1667 13.2917H24.7708C25.7701 13.2917 26.5833 12.4785 26.5833 11.4792V9.0625C26.5833 8.06321 25.7701 7.25 24.7708 7.25ZM11.4792 12.0833C10.4787 12.0833 9.66666 11.2713 9.66666 10.2708C9.66666 9.27033 10.4787 8.45833 11.4792 8.45833C12.4797 8.45833 13.2917 9.27033 13.2917 10.2708C13.2917 11.2713 12.4797 12.0833 11.4792 12.0833ZM17.5208 12.0833C16.5203 12.0833 15.7083 11.2713 15.7083 10.2708C15.7083 9.27033 16.5203 8.45833 17.5208 8.45833C18.5213 8.45833 19.3333 9.27033 19.3333 10.2708C19.3333 11.2713 18.5213 12.0833 17.5208 12.0833Z" fill="#2F667B"/>
</g>
<defs>
<clipPath id="clip0_94_51">
<rect width="29" height="29" fill="white"/>
</clipPath>
</defs>
</svg>
