<svg width="8" height="9" viewBox="0 0 8 9" fill="none" xmlns="http://www.w3.org/2000/svg">
<path d="M7.52837 4.95643C7.4686 4.89617 7.3975 4.84835 7.31917 4.81571C7.24083 4.78308 7.1568 4.76627 7.07194 4.76627C6.98707 4.76627 6.90305 4.78308 6.82471 4.81571C6.74637 4.84835 6.67527 4.89617 6.61551 4.95643L4.50051 7.07143V0.642857C4.50051 0.472361 4.43278 0.308848 4.31222 0.188289C4.19166 0.0677295 4.02815 0 3.85765 0C3.68716 0 3.52364 0.0677295 3.40308 0.188289C3.28252 0.308848 3.21479 0.472361 3.21479 0.642857V7.07143L1.0998 4.95643C1.04003 4.89617 0.968933 4.84835 0.890594 4.81571C0.812256 4.78308 0.728231 4.76627 0.643367 4.76627C0.558502 4.76627 0.474477 4.78308 0.396139 4.81571C0.317801 4.84835 0.2467 4.89617 0.186938 4.95643C0.0672053 5.07688 0 5.23981 0 5.40964C0 5.57948 0.0672053 5.74241 0.186938 5.86286L2.95122 8.62071C3.19123 8.86216 3.51721 8.99856 3.85765 9C4.19586 8.99687 4.51922 8.8606 4.75765 8.62071L7.52194 5.86286C7.64253 5.74326 7.71089 5.5808 7.7121 5.41097C7.7133 5.24113 7.64725 5.07772 7.52837 4.95643Z" fill="#2F667B"/>
</svg>
