<svg width="30" height="30" viewBox="0 0 30 30" fill="none" xmlns="http://www.w3.org/2000/svg">
<rect x="0.75" y="0.75" width="28.5" height="28.5" rx="14.25" stroke="#2F667B" stroke-width="1.5"/>
<path d="M19.7671 10.2326C19.6181 10.0837 19.4161 9.99998 19.2054 9.99998C18.9947 9.99998 18.7926 10.0837 18.6436 10.2326L14.9998 13.8765L11.3559 10.2326C11.2069 10.0837 11.0048 9.99998 10.7941 9.99998C10.5835 9.99998 10.3814 10.0837 10.2324 10.2326C10.0834 10.3816 9.99976 10.5837 9.99976 10.7944C9.99976 11.0051 10.0834 11.2071 10.2324 11.3561L13.8762 15L10.2324 18.6438C10.0834 18.7928 9.99976 18.9949 9.99976 19.2056C9.99976 19.4163 10.0834 19.6183 10.2324 19.7673C10.3814 19.9163 10.5835 20 10.7941 20C11.0048 20 11.2069 19.9163 11.3559 19.7673L14.9998 16.1235L18.6436 19.7673C18.7926 19.9163 18.9947 20 19.2054 20C19.4161 20 19.6181 19.9163 19.7671 19.7673C19.9161 19.6183 19.9998 19.4163 19.9998 19.2056C19.9998 18.9949 19.9161 18.7928 19.7671 18.6438L16.1233 15L19.7671 11.3561C19.9161 11.2071 19.9998 11.0051 19.9998 10.7944C19.9998 10.5837 19.9161 10.3816 19.7671 10.2326Z" fill="#2F667B"/>
</svg>
