<svg width="20" height="20" viewBox="0 0 20 20" fill="none" xmlns="http://www.w3.org/2000/svg">
<g clip-path="url(#clip0_196_192)">
<path d="M17.4999 3.33333H14.9166C14.7232 2.39284 14.2114 1.54779 13.4676 0.940598C12.7238 0.333408 11.7934 0.0012121 10.8333 0L9.1666 0C8.20642 0.0012121 7.27603 0.333408 6.53222 0.940598C5.78841 1.54779 5.27668 2.39284 5.08326 3.33333H2.49993C2.27892 3.33333 2.06695 3.42113 1.91067 3.57741C1.75439 3.73369 1.6666 3.94565 1.6666 4.16667C1.6666 4.38768 1.75439 4.59964 1.91067 4.75592C2.06695 4.9122 2.27892 5 2.49993 5H3.33326V15.8333C3.33459 16.938 3.774 17.997 4.55511 18.7782C5.33623 19.5593 6.39527 19.9987 7.49993 20H12.4999C13.6046 19.9987 14.6636 19.5593 15.4447 18.7782C16.2259 17.997 16.6653 16.938 16.6666 15.8333V5H17.4999C17.7209 5 17.9329 4.9122 18.0892 4.75592C18.2455 4.59964 18.3333 4.38768 18.3333 4.16667C18.3333 3.94565 18.2455 3.73369 18.0892 3.57741C17.9329 3.42113 17.7209 3.33333 17.4999 3.33333V3.33333ZM9.1666 1.66667H10.8333C11.3502 1.6673 11.8542 1.82781 12.2763 2.1262C12.6983 2.42459 13.0178 2.84624 13.1908 3.33333H6.80909C6.98208 2.84624 7.30151 2.42459 7.72358 2.1262C8.14566 1.82781 8.6497 1.6673 9.1666 1.66667V1.66667ZM14.9999 15.8333C14.9999 16.4964 14.7365 17.1323 14.2677 17.6011C13.7989 18.0699 13.163 18.3333 12.4999 18.3333H7.49993C6.83689 18.3333 6.201 18.0699 5.73216 17.6011C5.26332 17.1323 4.99993 16.4964 4.99993 15.8333V5H14.9999V15.8333Z" fill="white"/>
<path d="M8.33333 14.9994C8.55434 14.9994 8.76631 14.9116 8.92259 14.7553C9.07887 14.5991 9.16666 14.3871 9.16666 14.1661V9.1661C9.16666 8.94508 9.07887 8.73312 8.92259 8.57684C8.76631 8.42056 8.55434 8.33276 8.33333 8.33276C8.11232 8.33276 7.90036 8.42056 7.74408 8.57684C7.5878 8.73312 7.5 8.94508 7.5 9.1661V14.1661C7.5 14.3871 7.5878 14.5991 7.74408 14.7553C7.90036 14.9116 8.11232 14.9994 8.33333 14.9994Z" fill="white"/>
<path d="M11.6665 14.9994C11.8876 14.9994 12.0995 14.9116 12.2558 14.7553C12.4121 14.5991 12.4999 14.3871 12.4999 14.1661V9.1661C12.4999 8.94508 12.4121 8.73312 12.2558 8.57684C12.0995 8.42056 11.8876 8.33276 11.6665 8.33276C11.4455 8.33276 11.2336 8.42056 11.0773 8.57684C10.921 8.73312 10.8332 8.94508 10.8332 9.1661V14.1661C10.8332 14.3871 10.921 14.5991 11.0773 14.7553C11.2336 14.9116 11.4455 14.9994 11.6665 14.9994Z" fill="white"/>
</g>
<defs>
<clipPath id="clip0_196_192">
<rect width="20" height="20" fill="white"/>
</clipPath>
</defs>
</svg>
