<svg width="15" height="14" viewBox="0 0 15 14" fill="none" xmlns="http://www.w3.org/2000/svg">
<g clip-path="url(#clip0_20_140)">
<path d="M14.375 5.25C14.5408 5.25 14.6997 5.18854 14.8169 5.07915C14.9342 4.96975 15 4.82138 15 4.66667V1.75C15 1.28587 14.8025 0.840752 14.4508 0.512563C14.0992 0.184374 13.6223 0 13.125 0L10 0C9.83424 0 9.67527 0.0614582 9.55806 0.170854C9.44085 0.280251 9.375 0.428624 9.375 0.583333C9.375 0.738043 9.44085 0.886416 9.55806 0.995812C9.67527 1.10521 9.83424 1.16667 10 1.16667H12.8663L7.5 6.17517L2.13375 1.16667H5C5.16576 1.16667 5.32473 1.10521 5.44194 0.995812C5.55915 0.886416 5.625 0.738043 5.625 0.583333C5.625 0.428624 5.55915 0.280251 5.44194 0.170854C5.32473 0.0614582 5.16576 0 5 0L1.875 0C1.37772 0 0.900805 0.184374 0.549175 0.512563C0.197544 0.840752 0 1.28587 0 1.75L0 4.66667C0 4.82138 0.065848 4.96975 0.183058 5.07915C0.300269 5.18854 0.45924 5.25 0.625 5.25C0.79076 5.25 0.949732 5.18854 1.06694 5.07915C1.18415 4.96975 1.25 4.82138 1.25 4.66667V1.9915L6.61625 7L1.25 12.0085V9.33333C1.25 9.17862 1.18415 9.03025 1.06694 8.92085C0.949732 8.81146 0.79076 8.75 0.625 8.75C0.45924 8.75 0.300269 8.81146 0.183058 8.92085C0.065848 9.03025 0 9.17862 0 9.33333L0 12.25C0 12.7141 0.197544 13.1592 0.549175 13.4874C0.900805 13.8156 1.37772 14 1.875 14H5C5.16576 14 5.32473 13.9385 5.44194 13.8291C5.55915 13.7197 5.625 13.5714 5.625 13.4167C5.625 13.262 5.55915 13.1136 5.44194 13.0042C5.32473 12.8948 5.16576 12.8333 5 12.8333H2.13375L7.5 7.82483L12.8663 12.8333H10C9.83424 12.8333 9.67527 12.8948 9.55806 13.0042C9.44085 13.1136 9.375 13.262 9.375 13.4167C9.375 13.5714 9.44085 13.7197 9.55806 13.8291C9.67527 13.9385 9.83424 14 10 14H13.125C13.6223 14 14.0992 13.8156 14.4508 13.4874C14.8025 13.1592 15 12.7141 15 12.25V9.33333C15 9.17862 14.9342 9.03025 14.8169 8.92085C14.6997 8.81146 14.5408 8.75 14.375 8.75C14.2092 8.75 14.0503 8.81146 13.9331 8.92085C13.8158 9.03025 13.75 9.17862 13.75 9.33333V12.0085L8.38375 7L13.75 1.9915V4.66667C13.75 4.82138 13.8158 4.96975 13.9331 5.07915C14.0503 5.18854 14.2092 5.25 14.375 5.25Z" fill="black" fill-opacity="0.7"/>
</g>
<defs>
<clipPath id="clip0_20_140">
<rect width="15" height="14" fill="white"/>
</clipPath>
</defs>
</svg>
