<svg width="12" height="12" viewBox="0 0 12 12" fill="none" xmlns="http://www.w3.org/2000/svg">
<g clip-path="url(#clip0_20_145)">
<path d="M10.989 4.78113C10.2566 3.58829 8.59057 1.58702 5.66657 1.58702C2.74257 1.58702 1.07657 3.58829 0.344152 4.78113C0.117735 5.14734 -0.00219727 5.56938 -0.00219727 5.99993C-0.00219727 6.43049 0.117735 6.85253 0.344152 7.21874C1.07657 8.41157 2.74257 10.4128 5.66657 10.4128C8.59057 10.4128 10.2566 8.41157 10.989 7.21874C11.2154 6.85253 11.3353 6.43049 11.3353 5.99993C11.3353 5.56938 11.2154 5.14734 10.989 4.78113ZM10.1838 6.72432C9.55485 7.74716 8.1311 9.46841 5.66657 9.46841C3.20204 9.46841 1.77829 7.74716 1.14929 6.72432C1.01477 6.50665 0.94352 6.25582 0.94352 5.99993C0.94352 5.74405 1.01477 5.49322 1.14929 5.27554C1.77829 4.25271 3.20204 2.53146 5.66657 2.53146C8.1311 2.53146 9.55485 4.25082 10.1838 5.27554C10.3184 5.49322 10.3896 5.74405 10.3896 5.99993C10.3896 6.25582 10.3184 6.50665 10.1838 6.72432Z" fill="#2F667B"/>
<path d="M5.66653 3.63881C5.19955 3.63881 4.74305 3.77729 4.35477 4.03673C3.96649 4.29617 3.66386 4.66493 3.48515 5.09637C3.30644 5.5278 3.25969 6.00254 3.35079 6.46055C3.44189 6.91856 3.66677 7.33927 3.99697 7.66948C4.32718 7.99969 4.74789 8.22456 5.2059 8.31567C5.66391 8.40677 6.13865 8.36001 6.57009 8.18131C7.00153 8.0026 7.37028 7.69997 7.62972 7.31169C7.88917 6.9234 8.02764 6.46691 8.02764 5.99992C8.02689 5.37395 7.77789 4.77383 7.33526 4.33119C6.89263 3.88856 6.29251 3.63956 5.66653 3.63881ZM5.66653 7.41659C5.38634 7.41659 5.11244 7.3335 4.87947 7.17784C4.6465 7.02217 4.46493 6.80092 4.3577 6.54206C4.25048 6.2832 4.22242 5.99835 4.27709 5.72355C4.33175 5.44874 4.46667 5.19631 4.6648 4.99819C4.86292 4.80006 5.11535 4.66514 5.39015 4.61048C5.66496 4.55581 5.94981 4.58387 6.20867 4.69109C6.46753 4.79832 6.68878 4.9799 6.84445 5.21287C7.00011 5.44583 7.0832 5.71973 7.0832 5.99992C7.0832 6.37565 6.93394 6.73598 6.66827 7.00166C6.40259 7.26733 6.04226 7.41659 5.66653 7.41659Z" fill="#2F667B"/>
</g>
<defs>
<clipPath id="clip0_20_145">
<rect width="11.3333" height="11.3333" fill="white" transform="translate(0 0.333332)"/>
</clipPath>
</defs>
</svg>
