<svg width="16" height="15" viewBox="0 0 16 15" fill="none" xmlns="http://www.w3.org/2000/svg">
<g clip-path="url(#clip0_22_18)">
<path d="M11.413 1.19783C10.6786 1.20878 9.96028 1.40524 9.33048 1.76737C8.70068 2.12951 8.18174 2.6445 7.82607 3.26033C7.4704 2.6445 6.95146 2.12951 6.32166 1.76737C5.69186 1.40524 4.97349 1.20878 4.23911 1.19783C3.06842 1.24657 1.96544 1.73736 1.17115 2.56298C0.376848 3.38859 -0.0442017 4.48191 -1.65869e-05 5.60408C-1.65869e-05 8.44596 3.12129 11.5497 5.73911 13.6541C6.3236 14.1248 7.06261 14.3828 7.82607 14.3828C8.58953 14.3828 9.32854 14.1248 9.91303 13.6541C12.5309 11.5497 15.6522 8.44596 15.6522 5.60408C15.6963 4.48191 15.2753 3.38859 14.481 2.56298C13.6867 1.73736 12.5837 1.24657 11.413 1.19783ZM9.07498 12.6978C8.72541 12.9799 8.28308 13.1346 7.82607 13.1346C7.36906 13.1346 6.92673 12.9799 6.57716 12.6978C3.22629 10.0035 1.30433 7.41846 1.30433 5.60408C1.25975 4.81328 1.54327 4.03766 2.09305 3.44639C2.64283 2.85512 3.41427 2.49617 4.23911 2.44783C5.06396 2.49617 5.8354 2.85512 6.38518 3.44639C6.93496 4.03766 7.21848 4.81328 7.1739 5.60408C7.1739 5.76984 7.24261 5.92881 7.36491 6.04602C7.48722 6.16323 7.6531 6.22908 7.82607 6.22908C7.99904 6.22908 8.16492 6.16323 8.28723 6.04602C8.40953 5.92881 8.47824 5.76984 8.47824 5.60408C8.43366 4.81328 8.71718 4.03766 9.26696 3.44639C9.81674 2.85512 10.5882 2.49617 11.413 2.44783C12.2379 2.49617 13.0093 2.85512 13.5591 3.44639C14.1089 4.03766 14.3924 4.81328 14.3478 5.60408C14.3478 7.41846 12.4259 10.0035 9.07498 12.6953V12.6978Z" fill="#2F667B"/>
</g>
<defs>
<clipPath id="clip0_22_18">
<rect width="15.6522" height="15" fill="white"/>
</clipPath>
</defs>
</svg>
