<svg width="29" height="29" viewBox="0 0 29 29" fill="none" xmlns="http://www.w3.org/2000/svg">
<g clip-path="url(#clip0_53_39)">
<path d="M8.45833 0H4.83333C3.55145 0 2.32208 0.509225 1.41565 1.41565C0.509225 2.32208 0 3.55145 0 4.83333L0 8.45833C0 9.74021 0.509225 10.9696 1.41565 11.876C2.32208 12.7824 3.55145 13.2917 4.83333 13.2917H8.45833C9.74021 13.2917 10.9696 12.7824 11.876 11.876C12.7824 10.9696 13.2917 9.74021 13.2917 8.45833V4.83333C13.2917 3.55145 12.7824 2.32208 11.876 1.41565C10.9696 0.509225 9.74021 0 8.45833 0V0ZM10.875 8.45833C10.875 9.09927 10.6204 9.71396 10.1672 10.1672C9.71396 10.6204 9.09927 10.875 8.45833 10.875H4.83333C4.19239 10.875 3.5777 10.6204 3.12449 10.1672C2.67128 9.71396 2.41667 9.09927 2.41667 8.45833V4.83333C2.41667 4.19239 2.67128 3.5777 3.12449 3.12449C3.5777 2.67128 4.19239 2.41667 4.83333 2.41667H8.45833C9.09927 2.41667 9.71396 2.67128 10.1672 3.12449C10.6204 3.5777 10.875 4.19239 10.875 4.83333V8.45833Z" fill="black"/>
<path d="M24.1665 0H20.5415C19.2596 0 18.0302 0.509225 17.1238 1.41565C16.2174 2.32208 15.7082 3.55146 15.7082 4.83334V8.45834C15.7082 9.74022 16.2174 10.9696 17.1238 11.876C18.0302 12.7825 19.2596 13.2917 20.5415 13.2917H24.1665C25.4484 13.2917 26.6777 12.7825 27.5842 11.876C28.4906 10.9696 28.9998 9.74022 28.9998 8.45834V4.83334C28.9998 3.55146 28.4906 2.32208 27.5842 1.41565C26.6777 0.509225 25.4484 0 24.1665 0V0ZM26.5831 8.45834C26.5831 9.09928 26.3285 9.71397 25.8753 10.1672C25.4221 10.6204 24.8074 10.875 24.1665 10.875H20.5415C19.9005 10.875 19.2859 10.6204 18.8326 10.1672C18.3794 9.71397 18.1248 9.09928 18.1248 8.45834V4.83334C18.1248 4.1924 18.3794 3.57771 18.8326 3.12449C19.2859 2.67128 19.9005 2.41667 20.5415 2.41667H24.1665C24.8074 2.41667 25.4221 2.67128 25.8753 3.12449C26.3285 3.57771 26.5831 4.1924 26.5831 4.83334V8.45834Z" fill="black"/>
<path d="M8.45832 15.7083H4.83332C3.55144 15.7083 2.32206 16.2176 1.41564 17.124C0.50921 18.0304 -1.52588e-05 19.2598 -1.52588e-05 20.5417L-1.52588e-05 24.1667C-1.52588e-05 25.4486 0.50921 26.6779 1.41564 27.5844C2.32206 28.4908 3.55144 29 4.83332 29H8.45832C9.7402 29 10.9696 28.4908 11.876 27.5844C12.7824 26.6779 13.2917 25.4486 13.2917 24.1667V20.5417C13.2917 19.2598 12.7824 18.0304 11.876 17.124C10.9696 16.2176 9.7402 15.7083 8.45832 15.7083V15.7083ZM10.875 24.1667C10.875 24.8076 10.6204 25.4223 10.1672 25.8755C9.71395 26.3287 9.09926 26.5834 8.45832 26.5834H4.83332C4.19238 26.5834 3.57769 26.3287 3.12448 25.8755C2.67126 25.4223 2.41665 24.8076 2.41665 24.1667V20.5417C2.41665 19.9007 2.67126 19.2861 3.12448 18.8328C3.57769 18.3796 4.19238 18.125 4.83332 18.125H8.45832C9.09926 18.125 9.71395 18.3796 10.1672 18.8328C10.6204 19.2861 10.875 19.9007 10.875 20.5417V24.1667Z" fill="black"/>
<path d="M24.1665 15.7083H20.5415C19.2596 15.7083 18.0302 16.2176 17.1238 17.124C16.2174 18.0304 15.7082 19.2598 15.7082 20.5417V24.1667C15.7082 25.4486 16.2174 26.6779 17.1238 27.5844C18.0302 28.4908 19.2596 29 20.5415 29H24.1665C25.4484 29 26.6777 28.4908 27.5842 27.5844C28.4906 26.6779 28.9998 25.4486 28.9998 24.1667V20.5417C28.9998 19.2598 28.4906 18.0304 27.5842 17.124C26.6777 16.2176 25.4484 15.7083 24.1665 15.7083V15.7083ZM26.5831 24.1667C26.5831 24.8076 26.3285 25.4223 25.8753 25.8755C25.4221 26.3287 24.8074 26.5834 24.1665 26.5834H20.5415C19.9005 26.5834 19.2859 26.3287 18.8326 25.8755C18.3794 25.4223 18.1248 24.8076 18.1248 24.1667V20.5417C18.1248 19.9007 18.3794 19.2861 18.8326 18.8328C19.2859 18.3796 19.9005 18.125 20.5415 18.125H24.1665C24.8074 18.125 25.4221 18.3796 25.8753 18.8328C26.3285 19.2861 26.5831 19.9007 26.5831 20.5417V24.1667Z" fill="black"/>
</g>
<defs>
<clipPath id="clip0_53_39">
<rect width="29" height="29" fill="white"/>
</clipPath>
</defs>
</svg>
