<svg width="29" height="29" viewBox="0 0 29 29" fill="none" xmlns="http://www.w3.org/2000/svg">
<g clip-path="url(#clip0_89_39)">
<path d="M8.45833 0H4.83333C2.16396 0 0 2.16396 0 4.83333V8.45833C0 11.1277 2.16396 13.2917 4.83333 13.2917H8.45833C11.1277 13.2917 13.2917 11.1277 13.2917 8.45833V4.83333C13.2917 2.16396 11.1277 0 8.45833 0Z" fill="#2F667B"/>
<path d="M24.1665 0H20.5415C17.8721 0 15.7082 2.16396 15.7082 4.83334V8.45834C15.7082 11.1277 17.8721 13.2917 20.5415 13.2917H24.1665C26.8359 13.2917 28.9998 11.1277 28.9998 8.45834V4.83334C28.9998 2.16396 26.8359 0 24.1665 0Z" fill="#2F667B"/>
<path d="M8.45832 15.7083H4.83332C2.16394 15.7083 -1.52588e-05 17.8723 -1.52588e-05 20.5417V24.1667C-1.52588e-05 26.8361 2.16394 29 4.83332 29H8.45832C11.1277 29 13.2917 26.8361 13.2917 24.1667V20.5417C13.2917 17.8723 11.1277 15.7083 8.45832 15.7083Z" fill="#2F667B"/>
<path d="M24.1665 15.7083H20.5415C17.8721 15.7083 15.7082 17.8723 15.7082 20.5417V24.1667C15.7082 26.8361 17.8721 29 20.5415 29H24.1665C26.8359 29 28.9998 26.8361 28.9998 24.1667V20.5417C28.9998 17.8723 26.8359 15.7083 24.1665 15.7083Z" fill="#2F667B"/>
</g>
<defs>
<clipPath id="clip0_89_39">
<rect width="29" height="29" fill="white"/>
</clipPath>
</defs>
</svg>
