<svg width="14" height="15" viewBox="0 0 14 15" fill="none" xmlns="http://www.w3.org/2000/svg">
<path d="M7.07107 0.75793C6.86038 0.757962 6.65833 0.841673 6.50935 0.990652C6.36037 1.13963 6.27666 1.34168 6.27663 1.55237L6.27663 6.70556L1.12344 6.70556C0.91275 6.70559 0.710699 6.7893 0.561719 6.93828C0.41274 7.08726 0.32903 7.28931 0.328998 7.5C0.32903 7.71069 0.41274 7.91274 0.561719 8.06172C0.710699 8.2107 0.91275 8.29441 1.12344 8.29444L6.27663 8.29444L6.27663 13.4476C6.27666 13.6583 6.36037 13.8604 6.50935 14.0093C6.65833 14.1583 6.86038 14.242 7.07107 14.2421C7.28176 14.242 7.48381 14.1583 7.63279 14.0093C7.78177 13.8604 7.86548 13.6583 7.86551 13.4476L7.86551 8.29444H13.0187C13.2294 8.29441 13.4314 8.2107 13.5804 8.06172C13.7294 7.91274 13.8131 7.71069 13.8131 7.5C13.8131 7.28931 13.7294 7.08726 13.5804 6.93828C13.4314 6.7893 13.2294 6.70559 13.0187 6.70556H7.86551L7.86551 1.55237C7.86548 1.34168 7.78177 1.13963 7.63279 0.990652C7.48381 0.841673 7.28176 0.757962 7.07107 0.75793Z" fill="white"/>
</svg>
