<svg width="30" height="29" viewBox="0 0 30 29" fill="none" xmlns="http://www.w3.org/2000/svg">
<g clip-path="url(#clip0_53_42)">
<path d="M29.2481 26.7524L22.0853 19.5896C24.0373 17.2024 24.997 14.1562 24.7659 11.0811C24.5349 8.00608 23.1308 5.13748 20.844 3.06867C18.5573 0.999856 15.5628 -0.110886 12.4801 -0.033808C9.39736 0.0432702 6.46218 1.30227 4.28167 3.48278C2.10116 5.66329 0.842159 8.59847 0.765081 11.6812C0.688003 14.764 1.79874 17.7584 3.86756 20.0451C5.93637 22.3319 8.80497 23.736 11.88 23.9671C14.955 24.1981 18.0012 23.2384 20.3885 21.2864L27.5513 28.4492C27.7777 28.6678 28.0808 28.7888 28.3954 28.7861C28.7101 28.7833 29.011 28.6571 29.2335 28.4346C29.456 28.2121 29.5822 27.9112 29.5849 27.5965C29.5877 27.2819 29.4667 26.9788 29.2481 26.7524ZM12.7997 21.6008C10.901 21.6008 9.04497 21.0378 7.46626 19.983C5.88755 18.9281 4.65709 17.4288 3.93049 15.6746C3.20389 13.9204 3.01378 11.9902 3.38419 10.128C3.75461 8.26576 4.66892 6.5552 6.01151 5.21262C7.35409 3.87003 9.06465 2.95572 10.9269 2.5853C12.7891 2.21489 14.7193 2.405 16.4735 3.1316C18.2277 3.8582 19.727 5.08866 20.7818 6.66737C21.8367 8.24608 22.3997 10.1021 22.3997 12.0008C22.3969 14.546 21.3845 16.9862 19.5848 18.7859C17.7851 20.5856 15.3449 21.598 12.7997 21.6008Z" fill="black"/>
</g>
<defs>
<clipPath id="clip0_53_42">
<rect width="28.8" height="28.8" fill="white" transform="translate(0.799988)"/>
</clipPath>
</defs>
</svg>
