<svg width="24" height="24" viewBox="0 0 24 24" fill="none" xmlns="http://www.w3.org/2000/svg">
<g clip-path="url(#clip0_317_84)">
<path d="M8 0H5C2.243 0 0 2.243 0 5V8C0 9.103 0.897 10 2 10H8C9.103 10 10 9.103 10 8V2C10 0.897 9.103 0 8 0ZM2 8V5C2 3.346 3.346 2 5 2H8V8H2ZM14 10H20C21.103 10 22 9.103 22 8V5C22 2.243 19.757 0 17 0H14C12.897 0 12 0.897 12 2V8C12 9.103 12.897 10 14 10ZM14 2H17C18.654 2 20 3.346 20 5V8H14V2ZM8 12H2C0.897 12 0 12.897 0 14V17C0 19.757 2.243 22 5 22H8C9.103 22 10 21.103 10 20V14C10 12.897 9.103 12 8 12ZM5 20C3.346 20 2 18.654 2 17V14H8V20H5ZM23.707 22.293L21.167 19.753C21.691 18.962 22 18.017 22 17C22 14.243 19.757 12 17 12C14.243 12 12 14.243 12 17C12 19.757 14.243 22 17 22C18.017 22 18.962 21.691 19.753 21.167L22.293 23.707C22.488 23.902 22.744 24 23 24C23.256 24 23.512 23.902 23.707 23.707C24.098 23.316 24.098 22.684 23.707 22.293ZM14 17C14 15.346 15.346 14 17 14C18.654 14 20 15.346 20 17C20 18.654 18.654 20 17 20C15.346 20 14 18.654 14 17Z" fill="#2F667B"/>
</g>
<defs>
<clipPath id="clip0_317_84">
<rect width="24" height="24" fill="white"/>
</clipPath>
</defs>
</svg>
