<svg width="31" height="31" viewBox="0 0 31 31" fill="none" xmlns="http://www.w3.org/2000/svg">
<path d="M29.2481 27.7524L22.0853 20.5896C24.0373 18.2024 24.997 15.1562 24.7659 12.0811C24.5349 9.00608 23.1308 6.13748 20.844 4.06867C18.5573 1.99986 15.5628 0.889114 12.4801 0.966192C9.39736 1.04327 6.46218 2.30227 4.28167 4.48278C2.10116 6.66329 0.842159 9.59847 0.765081 12.6812C0.688003 15.764 1.79874 18.7584 3.86756 21.0451C5.93637 23.3319 8.80497 24.736 11.88 24.9671C14.955 25.1981 18.0012 24.2384 20.3885 22.2864L27.5513 29.4492C27.7777 29.6678 28.0808 29.7888 28.3954 29.7861C28.7101 29.7833 29.011 29.6571 29.2335 29.4346C29.456 29.2121 29.5822 28.9112 29.5849 28.5965C29.5877 28.2819 29.4667 27.9788 29.2481 27.7524ZM12.7997 22.6008C10.901 22.6008 9.04497 22.0378 7.46626 20.983C5.88755 19.9281 4.65709 18.4288 3.93049 16.6746C3.20389 14.9204 3.01378 12.9902 3.38419 11.128C3.75461 9.26576 4.66892 7.5552 6.01151 6.21262C7.35409 4.87003 9.06465 3.95572 10.9269 3.5853C12.7891 3.21489 14.7193 3.405 16.4735 4.1316C18.2277 4.8582 19.727 6.08866 20.7818 7.66737C21.8367 9.24608 22.3997 11.1021 22.3997 13.0008C22.3969 15.546 21.3845 17.9862 19.5848 19.7859C17.7851 21.5856 15.3449 22.598 12.7997 22.6008Z" fill="#2F667B" stroke="#2F667B"/>
</svg>
