<svg width="11" height="6" viewBox="0 0 11 6" fill="none" xmlns="http://www.w3.org/2000/svg">
<path d="M10.1942 0.886597C10.125 0.816908 10.0428 0.761595 9.95221 0.723848C9.86161 0.686101 9.76443 0.666667 9.66627 0.666667C9.56812 0.666667 9.47094 0.686101 9.38033 0.723848C9.28973 0.761595 9.2075 0.816908 9.13838 0.886597L5.73308 4.29188C5.66396 4.36157 5.58173 4.41689 5.49113 4.45463C5.40052 4.49238 5.30334 4.51181 5.20519 4.51181C5.10704 4.51181 5.00985 4.49238 4.91925 4.45463C4.82865 4.41689 4.74641 4.36157 4.67729 4.29188L1.272 0.886597C1.20288 0.816908 1.12065 0.761595 1.03004 0.723848C0.939438 0.686101 0.842256 0.666667 0.744103 0.666667C0.645951 0.666667 0.548769 0.686101 0.458165 0.723848C0.367561 0.761595 0.285328 0.816908 0.216208 0.886597C0.0777281 1.0259 0 1.21435 0 1.41077C0 1.6072 0.0777281 1.79564 0.216208 1.93495L3.62894 5.34767C4.04717 5.76538 4.61409 6 5.20519 6C5.79628 6 6.36321 5.76538 6.78144 5.34767L10.1942 1.93495C10.3326 1.79564 10.4104 1.6072 10.4104 1.41077C10.4104 1.21435 10.3326 1.0259 10.1942 0.886597Z" fill="#2F667B"/>
</svg>
