<svg width="29" height="29" viewBox="0 0 29 29" fill="none" xmlns="http://www.w3.org/2000/svg">
<g clip-path="url(#clip0_53_43)">
<path d="M14.4 14.3999C15.824 14.3999 17.2161 13.9776 18.4001 13.1865C19.5842 12.3953 20.507 11.2709 21.0519 9.95523C21.5969 8.63961 21.7395 7.19193 21.4617 5.79526C21.1839 4.3986 20.4981 3.11568 19.4912 2.10874C18.4842 1.1018 17.2013 0.416071 15.8047 0.138258C14.408 -0.139556 12.9603 0.00302811 11.6447 0.547979C10.3291 1.09293 9.20458 2.01577 8.41343 3.19981C7.62228 4.38384 7.20001 5.77589 7.20001 7.19991C7.20192 9.10889 7.9611 10.9391 9.31095 12.289C10.6608 13.6388 12.491 14.398 14.4 14.3999ZM14.4 2.39991C15.3494 2.39991 16.2774 2.68143 17.0667 3.20886C17.8561 3.73629 18.4713 4.48595 18.8346 5.36303C19.1979 6.24012 19.293 7.20524 19.1078 8.13635C18.9226 9.06745 18.4654 9.92273 17.7941 10.594C17.1228 11.2653 16.2676 11.7225 15.3364 11.9077C14.4053 12.0929 13.4402 11.9978 12.5631 11.6345C11.686 11.2712 10.9364 10.656 10.409 9.86665C9.88153 9.07729 9.60001 8.14926 9.60001 7.19991C9.60001 5.92687 10.1057 4.70597 11.0059 3.8058C11.9061 2.90562 13.127 2.39991 14.4 2.39991V2.39991Z" fill="black"/>
<path d="M14.4 16.8007C11.5366 16.8039 8.79143 17.9428 6.76673 19.9675C4.74203 21.9922 3.60315 24.7374 3.59998 27.6007C3.59998 27.919 3.7264 28.2242 3.95145 28.4492C4.17649 28.6743 4.48172 28.8007 4.79998 28.8007C5.11824 28.8007 5.42346 28.6743 5.6485 28.4492C5.87355 28.2242 5.99998 27.919 5.99998 27.6007C5.99998 25.3729 6.88497 23.2363 8.46028 21.661C10.0356 20.0857 12.1722 19.2007 14.4 19.2007C16.6278 19.2007 18.7644 20.0857 20.3397 21.661C21.915 23.2363 22.8 25.3729 22.8 27.6007C22.8 27.919 22.9264 28.2242 23.1514 28.4492C23.3765 28.6743 23.6817 28.8007 24 28.8007C24.3182 28.8007 24.6235 28.6743 24.8485 28.4492C25.0735 28.2242 25.2 27.919 25.2 27.6007C25.1968 24.7374 24.0579 21.9922 22.0332 19.9675C20.0085 17.9428 17.2633 16.8039 14.4 16.8007V16.8007Z" fill="black"/>
</g>
<defs>
<clipPath id="clip0_53_43">
<rect width="28.8" height="28.8" fill="white"/>
</clipPath>
</defs>
</svg>
